# xmcd
# 
# Track frame offsets:
#     150
#     14665
#     24112
#     36247
#     46215
#     59752
#     71945
#     85097
#     97920
#     109505
# 
# Disc length: 1631
# 
# Revision: 3
# Processed by: cddbd v1.5.2PL0 Copyright (c) Steve Scherf et al.
# Submitted via: BonkEnc v1.0.6
# 
DISCID=7d065d0a
DTITLE=George Strait - Right Or Wrong
DYEAR=1983
DGENRE=Country
TTITLE0=You Look So Good In Love
TTITLE1=Right Or Wrong
TTITLE2=A Little Heaven's Rubbing Off On Me
TTITLE3=80 Proof Bottle Of Tear Stopper
TTITLE4=Every Time It Rains (Lord Don't It Pour)
TTITLE5=You'ew The Cloud I'm On (When I'm High)
TTITLE6=Let's Fall To Pieces Together
TTITLE7=I'm Satisfied With You
TTITLE8=Our Paths May Never Cross
TTITLE9=Fifteen Years Going Up (And One Night Coming Down)
EXTD=
EXTT0=
EXTT1=
EXTT2=
EXTT3=
EXTT4=
EXTT5=
EXTT6=
EXTT7=
EXTT8=
EXTT9=
PLAYORDER=
